<mxfile host="app.diagrams.net" modified="2020-09-28T12:49:52.542Z" agent="5.0 (Windows NT 10.0; Win64; x64) AppleWebKit/537.36 (KHTML, like Gecko) Chrome/85.0.4183.102 Safari/537.36" etag="ncSscuwvl5jbuZKCKT1w" version="13.7.5" type="github">
  <diagram id="0dwL3tMZ1DcZ1TR39w1r" name="Page-1">
    <mxGraphModel dx="1102" dy="533" grid="1" gridSize="10" guides="1" tooltips="1" connect="1" arrows="1" fold="1" page="1" pageScale="1" pageWidth="827" pageHeight="1169" math="0" shadow="0">
      <root>
        <mxCell id="0" />
        <mxCell id="1" parent="0" />
        <mxCell id="bvWllewmx-vqcr8ZCFyx-2" value="&lt;font style=&quot;font-size: 14px&quot;&gt;OVSDB&lt;/font&gt;" style="shape=document;whiteSpace=wrap;html=1;boundedLbl=1;strokeWidth=2;fillColor=#ffe6cc;strokeColor=#d79b00;" vertex="1" parent="1">
          <mxGeometry x="250" y="280" width="120" height="80" as="geometry" />
        </mxCell>
        <mxCell id="bvWllewmx-vqcr8ZCFyx-13" style="edgeStyle=orthogonalEdgeStyle;rounded=0;orthogonalLoop=1;jettySize=auto;html=1;exitX=0;exitY=0.5;exitDx=0;exitDy=0;startArrow=classic;startFill=1;strokeWidth=2;fillColor=#e51400;strokeColor=#B20000;" edge="1" parent="1" source="bvWllewmx-vqcr8ZCFyx-3" target="bvWllewmx-vqcr8ZCFyx-4">
          <mxGeometry relative="1" as="geometry" />
        </mxCell>
        <mxCell id="bvWllewmx-vqcr8ZCFyx-16" style="edgeStyle=none;rounded=0;orthogonalLoop=1;jettySize=auto;html=1;exitX=0.5;exitY=1;exitDx=0;exitDy=0;entryX=0.5;entryY=0;entryDx=0;entryDy=0;startArrow=classic;startFill=1;strokeWidth=2;fillColor=#0050ef;strokeColor=#001DBC;" edge="1" parent="1" source="bvWllewmx-vqcr8ZCFyx-3" target="bvWllewmx-vqcr8ZCFyx-2">
          <mxGeometry relative="1" as="geometry" />
        </mxCell>
        <mxCell id="bvWllewmx-vqcr8ZCFyx-3" value="&lt;font style=&quot;font-size: 14px&quot;&gt;ovsdb-server&lt;/font&gt;" style="rounded=0;whiteSpace=wrap;html=1;strokeWidth=2;fillColor=#ffe6cc;strokeColor=#d79b00;" vertex="1" parent="1">
          <mxGeometry x="250" y="160" width="120" height="60" as="geometry" />
        </mxCell>
        <mxCell id="bvWllewmx-vqcr8ZCFyx-4" value="&lt;font style=&quot;font-size: 14px&quot;&gt;ovs-vswitchd&lt;/font&gt;" style="rounded=0;whiteSpace=wrap;html=1;strokeWidth=2;fillColor=#dae8fc;strokeColor=#6c8ebf;" vertex="1" parent="1">
          <mxGeometry x="40" y="160" width="120" height="60" as="geometry" />
        </mxCell>
        <mxCell id="bvWllewmx-vqcr8ZCFyx-17" style="edgeStyle=none;rounded=0;orthogonalLoop=1;jettySize=auto;html=1;exitX=1;exitY=0.5;exitDx=0;exitDy=0;startArrow=classic;startFill=1;strokeWidth=2;" edge="1" parent="1" source="bvWllewmx-vqcr8ZCFyx-6" target="bvWllewmx-vqcr8ZCFyx-2">
          <mxGeometry relative="1" as="geometry" />
        </mxCell>
        <mxCell id="bvWllewmx-vqcr8ZCFyx-6" value="ovsdb-tool" style="rounded=0;whiteSpace=wrap;html=1;strokeWidth=2;fillColor=#ffe6cc;strokeColor=#d79b00;" vertex="1" parent="1">
          <mxGeometry x="70" y="300" width="90" height="40" as="geometry" />
        </mxCell>
        <mxCell id="bvWllewmx-vqcr8ZCFyx-12" style="rounded=0;orthogonalLoop=1;jettySize=auto;html=1;exitX=0.5;exitY=1;exitDx=0;exitDy=0;entryX=0.25;entryY=0;entryDx=0;entryDy=0;startArrow=classic;startFill=1;strokeWidth=2;fillColor=#e51400;strokeColor=#B20000;" edge="1" parent="1" source="bvWllewmx-vqcr8ZCFyx-39" target="bvWllewmx-vqcr8ZCFyx-3">
          <mxGeometry relative="1" as="geometry">
            <mxPoint x="205" y="100" as="sourcePoint" />
          </mxGeometry>
        </mxCell>
        <mxCell id="bvWllewmx-vqcr8ZCFyx-11" value="" style="endArrow=none;dashed=1;html=1;dashPattern=1 3;strokeWidth=2;" edge="1" parent="1">
          <mxGeometry width="50" height="50" relative="1" as="geometry">
            <mxPoint x="40" y="134" as="sourcePoint" />
            <mxPoint x="480" y="134" as="targetPoint" />
          </mxGeometry>
        </mxCell>
        <mxCell id="bvWllewmx-vqcr8ZCFyx-39" value="ovs-vsctl" style="rounded=0;whiteSpace=wrap;html=1;strokeWidth=2;fillColor=#ffe6cc;strokeColor=#d79b00;" vertex="1" parent="1">
          <mxGeometry x="205" y="60" width="90" height="40" as="geometry" />
        </mxCell>
        <mxCell id="bvWllewmx-vqcr8ZCFyx-54" style="edgeStyle=none;rounded=0;orthogonalLoop=1;jettySize=auto;html=1;exitX=0.5;exitY=1;exitDx=0;exitDy=0;entryX=0.75;entryY=0;entryDx=0;entryDy=0;startArrow=classic;startFill=1;endSize=6;strokeWidth=2;fillColor=#0050ef;strokeColor=#001DBC;" edge="1" parent="1" source="bvWllewmx-vqcr8ZCFyx-41">
          <mxGeometry relative="1" as="geometry">
            <mxPoint x="340" y="160" as="targetPoint" />
          </mxGeometry>
        </mxCell>
        <mxCell id="bvWllewmx-vqcr8ZCFyx-41" value="ovsdb-client" style="rounded=0;whiteSpace=wrap;html=1;strokeWidth=2;fillColor=#ffe6cc;strokeColor=#d79b00;" vertex="1" parent="1">
          <mxGeometry x="320" y="60" width="90" height="40" as="geometry" />
        </mxCell>
        <mxCell id="bvWllewmx-vqcr8ZCFyx-59" value="JSON-RPC" style="text;html=1;strokeColor=none;fillColor=none;align=center;verticalAlign=middle;whiteSpace=wrap;rounded=0;" vertex="1" parent="1">
          <mxGeometry x="274" y="110" width="70" height="20" as="geometry" />
        </mxCell>
        <mxCell id="bvWllewmx-vqcr8ZCFyx-62" value="JSON-RPC" style="text;html=1;strokeColor=none;fillColor=none;align=center;verticalAlign=middle;whiteSpace=wrap;rounded=0;" vertex="1" parent="1">
          <mxGeometry x="170" y="160" width="70" height="20" as="geometry" />
        </mxCell>
        <mxCell id="bvWllewmx-vqcr8ZCFyx-63" value="JSON-RPC" style="text;html=1;strokeColor=none;fillColor=none;align=center;verticalAlign=middle;whiteSpace=wrap;rounded=0;" vertex="1" parent="1">
          <mxGeometry x="320" y="240" width="70" height="20" as="geometry" />
        </mxCell>
      </root>
    </mxGraphModel>
  </diagram>
</mxfile>
